<?xml version="1.0" encoding="utf-8"?>
<!-- Generator: Adobe Illustrator 26.2.1, SVG Export Plug-In . SVG Version: 6.00 Build 0)  -->
<svg version="1.1" id="Layer_1" xmlns="http://www.w3.org/2000/svg" xmlns:xlink="http://www.w3.org/1999/xlink" x="0px" y="0px"
	 viewBox="0 0 617 116" style="enable-background:new 0 0 617 116;" xml:space="preserve">
<style type="text/css">
	.st0{fill:#FFFFFF;}
</style>
<g>
	<g>
		<path class="st0" d="M38.1,53.8v19.8c11.9-6,25.8-9.3,38.9-9.3s27,3.3,38.9,9.3V53.8C104,47.6,90.1,44.2,77,44.2
			S50,47.6,38.1,53.8z M54.5,53.5c-1,0.3-2,0.6-3,0.9v-1.1l-4.3,1.5V58c0,0,4-1.4,5.6-1.9l1.7,1.1v4.7L52,65c-1.9,0.6-3.8,1.2-5.6,2
			c-0.7-0.5-1.5-0.9-2.2-1.4v-1.7c1-0.4,2-0.8,2.9-1.2v1.7l0.4-0.2c1.2-0.4,3.9-1.4,3.9-1.4v-4.2c0,0-4,1.4-5.7,2l-1.6-1.1v-3.8
			l2.4-3.3c1.8-0.7,3.7-1.4,5.6-2c0.8,0.5,1.5,1,2.3,1.5V53.5z M64.5,50.3v9.5c0,0,1.2-0.2,1.2-0.2V62c-1.8,0.2-3.7,0.6-5.5,0.9
			v-2.5l1.2-0.2c0,0,0-9.5,0-9.5l-2.6,0.5V53c-0.8,0.2-1.6,0.4-2.4,0.6v-4.1c4.3-1.1,8.7-1.8,13.1-2.2v4.1c-0.8,0.1-1.6,0.2-2.4,0.2
			v-1.7L64.5,50.3z M97.6,61.5l1.2,0.3c0,0,0-9.5,0-9.5c0,0-1.2-0.3-1.2-0.3v-2.5c3.9,1,7.8,2.3,11.5,3.9v3.3c-1-0.4-2-0.8-2.9-1.2
			v-0.9c0,0-4.3-1.5-4.3-1.5v3.5c0,0,2.8,0.9,4.1,1.4v2.2c-1.2-0.4-4.1-1.4-4.1-1.4v3.8l4.3,1.5v-1.1c1,0.4,2,0.8,2.9,1.2v3.5
			c-3.7-1.6-7.6-2.9-11.5-3.9V61.5z M82.3,47.1c4.4,0.3,8.8,1,13.2,2v4.1c-0.8-0.2-1.6-0.4-2.4-0.5V51l-2.6-0.5V60
			c0,0,1.2,0.2,1.2,0.2v2.5c-1.8-0.3-3.7-0.6-5.6-0.8v-2.5l1.2,0.1c0,0,0-9.5,0-9.5l-2.6-0.3v1.7c-0.8-0.1-1.6-0.1-2.4-0.2V47.1z
			 M81.8,59c0,0,0.9,0.1,1.3,0.1v2.5c-1.8-0.1-3.5-0.2-5.3-0.2v-2.5l1.2,0c0,0-0.8-2.2-0.8-2.2l-4.7,0.1l-0.8,2.3c0,0,1.2,0,1.2,0
			v2.5c-1.7,0.1-3.4,0.2-5,0.3v-2.5l1.2-0.1c0,0,4.3-12.2,4.3-12.2c1.1,0,2.3,0,3.4,0L81.8,59z"/>
		<path class="st0" d="M126.4,60.5l4.3-9.4c-7.1-5.2-17.6-9.5-17.6-9.5l3.7-5.9V25.2h-27l-9.2,14.3c-1.2,0-2.4-0.1-3.6-0.1
			c-1.2,0-2.4,0-3.6,0.1l-9.2-14.3h-27v10.4l3.7,5.9c0,0-10.6,4.3-17.6,9.5l4.3,9.4l-6.2,19.9c0,0,5.4-3.8,12.1-7.7v8.8
			c0,0,3.5-2.3,7-4l-3.1,4.8V93h29.6V71L77,87.1L87.2,71V93h29.6V82.4l-3.1-4.8c3.4,1.7,7,4,7,4v-8.8c6.7,4,12.1,7.7,12.1,7.7
			L126.4,60.5z M118.6,69.4l0,8.4c-2.5-1.5-5.1-2.8-7.8-4v3.5l3.7,5.7v7.8h-25V67.8c-0.9-0.1-1.8-0.2-2.7-0.3L77,82.9l-9.7-15.4
			c-0.9,0.1-1.8,0.2-2.7,0.3v22.9h-25V83l3.7-5.7v-3.5c-2.7,1.2-5.3,2.5-7.8,4v-8.4c-3.3,1.6-6.9,3.8-10.5,6.1l4.8-15.3l-3.9-8.6
			c5.4-3.5,11.2-6.5,17.4-8.9V41L39.5,35v-7.5h23.5L72,41.6c1.7-0.1,3.3-0.2,5-0.2c1.6,0,3.3,0.1,5,0.2l9.1-14.1h23.5V35l-3.7,5.9
			v1.9c6.2,2.4,12.1,5.4,17.4,8.9l-3.9,8.6l4.8,15.3C125.5,73.2,121.8,71.1,118.6,69.4z"/>
		<path class="st0" d="M43.2,45.5c-5.1,2-9.8,4.4-14.2,7.1l3.4,7.5l-3.1,9.8c2-1.1,4-2.2,6.1-3.2V52.1c2.3-1.2,5.8-2.9,7.8-3.7V45.5
			z"/>
		<polygon class="st0" points="74.2,54.5 77.4,54.4 75.8,49.9 		"/>
		<path class="st0" d="M121.6,60.1l3.4-7.5c-4.4-2.8-9.1-5.1-14.2-7.1v2.9c2,0.8,5.4,2.5,7.8,3.7v14.5c2.1,1,4.1,2.1,6.1,3.2
			L121.6,60.1z"/>
	</g>
	<g>
		<path class="st0" d="M593.1,35.5v1.1h-2.2v5.6h-1.3v-5.6h-2.2v-1.1H593.1z M600.4,42.3l-0.2-4c0-0.5,0-1.2,0-1.9H600
			c-0.2,0.6-0.4,1.4-0.6,2l-1.2,3.7h-1.4l-1.2-3.8c-0.1-0.5-0.3-1.3-0.5-1.9h-0.1c0,0.6,0,1.3-0.1,1.9l-0.2,4h-1.3l0.5-6.7h2
			l1.2,3.3c0.1,0.5,0.3,1,0.4,1.7h0c0.2-0.6,0.3-1.2,0.5-1.7l1.2-3.3h1.9l0.5,6.7H600.4z"/>
	</g>
	<g>
		<g>
			<path class="st0" d="M169.1,68.7V50.1h3.8c1.7,0,3.1,0.2,4.2,0.6c1.2,0.4,2.2,1.1,3.2,2.1c1.7,1.7,2.6,3.9,2.6,6.6
				c0,2.6-0.9,4.8-2.6,6.6c-1,1-2,1.7-3.2,2.1c-1.1,0.4-2.5,0.6-4.2,0.6H169.1z M171.2,66.7h1.8c2.5,0,4.4-0.7,5.8-2.1
				c1.4-1.4,2.1-3.1,2.1-5.2s-0.7-3.8-2-5.2c-1.4-1.4-3.3-2.1-5.8-2.1h-1.8V66.7z"/>
			<path class="st0" d="M196.7,52.1h-7.5v5.5h7.3v1.9h-7.3v7.2h7.5v1.9h-9.6V50.1h9.6V52.1z"/>
			<path class="st0" d="M203,60.6v8.1h-2.1V50.1h3.4c1.2,0,2.2,0.1,3,0.4c0.8,0.2,1.4,0.7,2,1.3c0.9,1,1.3,2.2,1.3,3.6
				c0,1.6-0.5,2.9-1.6,3.8c-1,0.9-2.5,1.4-4.3,1.4H203z M203,58.7h1.7c1.3,0,2.2-0.3,2.9-0.9c0.7-0.6,1-1.4,1-2.5
				c0-2.2-1.4-3.3-4.1-3.3H203V58.7z"/>
			<path class="st0" d="M223,63.4h-7.9l-2.2,5.2h-2.2l8.5-19.4l8.3,19.4h-2.3L223,63.4z M222.2,61.5l-3.1-7.4l-3.2,7.4H222.2z"/>
			<path class="st0" d="M235.3,60.4l5.9,8.3h-2.5l-5.6-8.1h-0.5v8.1h-2.1V50.1h3c2.2,0,3.8,0.4,4.8,1.3c1.1,0.9,1.7,2.2,1.7,3.9
				c0,1.4-0.4,2.6-1.3,3.5C237.8,59.7,236.7,60.3,235.3,60.4z M232.5,58.7h1.3c1.3,0,2.3-0.3,3-0.9c0.7-0.6,1-1.4,1-2.5
				c0-2.2-1.4-3.3-4.1-3.3h-1.2V58.7z"/>
			<path class="st0" d="M249.1,52.1v16.6H247V52.1h-4.5v-1.9h11.1v1.9H249.1z"/>
			<path class="st0" d="M256.1,68.7l3.1-19.6l7.1,15.7l7.3-15.7l2.9,19.6h-2.1l-1.7-12.9l-6.3,13.6l-6.2-13.7l-1.8,12.9H256.1z"/>
			<path class="st0" d="M290.7,52.1h-7.5v5.5h7.3v1.9h-7.3v7.2h7.5v1.9h-9.6V50.1h9.6V52.1z"/>
			<path class="st0" d="M294.9,68.7V49.4l14.4,15.1V50.1h2.1v19.3L297,54.4v14.3H294.9z"/>
			<path class="st0" d="M321.2,52.1v16.6h-2.1V52.1h-4.5v-1.9h11.1v1.9H321.2z"/>
			<path class="st0" d="M335.8,59.3c0-2.6,1-4.8,2.9-6.7c1.9-1.9,4.2-2.8,6.8-2.8c2.6,0,4.9,0.9,6.8,2.8c1.9,1.9,2.8,4.1,2.8,6.8
				c0,2.6-1,4.9-2.9,6.8c-1.9,1.9-4.2,2.8-6.9,2.8c-2.4,0-4.5-0.8-6.4-2.5C336.9,64.6,335.8,62.2,335.8,59.3z M337.9,59.3
				c0,2.3,0.8,4.2,2.4,5.6c1.5,1.4,3.2,2.1,5.1,2.1c2.1,0,3.9-0.7,5.4-2.2c1.5-1.5,2.2-3.3,2.2-5.4c0-2.1-0.7-3.9-2.2-5.4
				c-1.5-1.5-3.2-2.2-5.3-2.2c-2.1,0-3.8,0.7-5.3,2.2C338.6,55.5,337.9,57.2,337.9,59.3z"/>
			<path class="st0" d="M367.7,52.1h-6.4v5.5h6.2v1.9h-6.2v9.2h-2.1V50.1h8.4V52.1z"/>
			<path class="st0" d="M393.9,51.7v2.6c-1.7-1.6-3.6-2.4-5.6-2.4c-2,0-3.8,0.8-5.3,2.3c-1.5,1.5-2.2,3.3-2.2,5.4
				c0,2.3,0.9,4.2,2.6,5.6c1.5,1.3,3.1,1.9,4.9,1.9c2,0,3.9-0.8,5.6-2.4v2.6c-1.8,1.2-3.6,1.8-5.6,1.8c-2.6,0-4.9-0.9-6.8-2.8
				c-1.9-1.9-2.8-4.1-2.8-6.7c0-2.6,0.9-4.9,2.8-6.8c1.9-1.9,4.2-2.8,6.9-2.8C390.3,49.8,392.1,50.4,393.9,51.7z"/>
			<path class="st0" d="M396.8,59.3c0-2.6,1-4.8,2.9-6.7c1.9-1.9,4.2-2.8,6.8-2.8c2.6,0,4.9,0.9,6.8,2.8c1.9,1.9,2.8,4.1,2.8,6.8
				c0,2.6-1,4.9-2.9,6.8c-1.9,1.9-4.2,2.8-6.9,2.8c-2.4,0-4.5-0.8-6.4-2.5C397.9,64.6,396.8,62.2,396.8,59.3z M398.9,59.3
				c0,2.3,0.8,4.2,2.4,5.6c1.5,1.4,3.2,2.1,5.1,2.1c2.1,0,3.9-0.7,5.4-2.2c1.5-1.5,2.2-3.3,2.2-5.4c0-2.1-0.7-3.9-2.2-5.4
				c-1.5-1.5-3.2-2.2-5.3-2.2c-2.1,0-3.8,0.7-5.3,2.2C399.7,55.5,398.9,57.2,398.9,59.3z"/>
			<path class="st0" d="M419.7,68.7l3.1-19.6l7.1,15.7l7.3-15.7l2.9,19.6h-2.1l-1.7-12.9l-6.3,13.6l-6.2-13.7l-1.8,12.9H419.7z"/>
			<path class="st0" d="M446.8,60.6v8.1h-2.1V50.1h3.4c1.2,0,2.2,0.1,3,0.4c0.8,0.2,1.4,0.7,2,1.3c0.9,1,1.3,2.2,1.3,3.6
				c0,1.6-0.5,2.9-1.6,3.8c-1,0.9-2.5,1.4-4.3,1.4H446.8z M446.8,58.7h1.7c1.3,0,2.2-0.3,2.9-0.9c0.7-0.6,1-1.4,1-2.5
				c0-2.2-1.4-3.3-4.1-3.3h-1.5V58.7z"/>
			<path class="st0" d="M459.9,50.1v11.3c0,1.1,0.1,1.9,0.2,2.5c0.1,0.5,0.3,1,0.7,1.5c0.4,0.5,0.9,0.9,1.6,1.2
				c0.7,0.3,1.4,0.5,2.1,0.5c0.7,0,1.4-0.2,2.1-0.5c0.7-0.3,1.2-0.7,1.6-1.2c0.3-0.4,0.6-0.9,0.7-1.5c0.1-0.6,0.2-1.4,0.2-2.5V50.1
				h2.1v11.9c0,1.2-0.1,2.1-0.4,2.8c-0.2,0.8-0.7,1.4-1.2,2c-1.3,1.4-3,2.1-5,2.1c-2,0-3.7-0.7-5-2.1c-0.6-0.6-1-1.3-1.2-2
				c-0.2-0.7-0.4-1.7-0.4-2.8V50.1H459.9z"/>
			<path class="st0" d="M480.7,52.1v16.6h-2.1V52.1h-4.5v-1.9h11.1v1.9H480.7z"/>
			<path class="st0" d="M498,52.1h-7.5v5.5h7.3v1.9h-7.3v7.2h7.5v1.9h-9.6V50.1h9.6V52.1z"/>
			<path class="st0" d="M507,60.4l5.9,8.3h-2.5l-5.6-8.1h-0.5v8.1h-2.1V50.1h3c2.2,0,3.8,0.4,4.8,1.3c1.1,0.9,1.7,2.2,1.7,3.9
				c0,1.4-0.4,2.6-1.3,3.5C509.6,59.7,508.4,60.3,507,60.4z M504.3,58.7h1.3c1.3,0,2.3-0.3,3-0.9c0.7-0.6,1-1.4,1-2.5
				c0-2.2-1.4-3.3-4.1-3.3h-1.2V58.7z"/>
			<path class="st0" d="M179,78.7l-1.6,1.1c-0.5-0.8-0.9-1.3-1.4-1.6c-0.5-0.3-1.1-0.4-1.8-0.4c-0.9,0-1.6,0.3-2.2,0.8
				c-0.6,0.5-0.9,1.2-0.9,2c0,1.1,0.9,2,2.6,2.8l1.8,0.8c1.5,0.7,2.6,1.4,3.2,2.2c0.7,0.8,1,1.8,1,2.9c0,1.6-0.6,3-1.7,4.1
				c-1.1,1.1-2.5,1.6-4.2,1.6c-1.5,0-2.7-0.4-3.7-1.2c-1-0.8-1.7-2-2-3.5l2-0.6c0.5,2.3,1.8,3.4,3.8,3.4c1,0,1.9-0.4,2.6-1.1
				c0.7-0.7,1.1-1.6,1.1-2.6c0-0.8-0.2-1.4-0.7-1.9c-0.5-0.5-1.3-1-2.4-1.5l-1.7-0.8c-0.7-0.3-1.3-0.6-1.7-0.9
				c-0.5-0.3-0.9-0.7-1.1-1c-0.6-0.7-0.9-1.6-0.9-2.6c0-1.4,0.5-2.5,1.5-3.4c1-0.9,2.2-1.4,3.7-1.4C176.3,75.8,177.9,76.8,179,78.7z
				"/>
			<path class="st0" d="M198.1,77.7v2.6c-1.7-1.6-3.6-2.4-5.6-2.4c-2,0-3.8,0.8-5.3,2.3c-1.5,1.5-2.2,3.3-2.2,5.4
				c0,2.3,0.9,4.2,2.6,5.6c1.5,1.3,3.1,1.9,4.9,1.9c2,0,3.9-0.8,5.6-2.4v2.6c-1.8,1.2-3.6,1.8-5.6,1.8c-2.6,0-4.9-0.9-6.8-2.8
				c-1.9-1.9-2.8-4.1-2.8-6.7c0-2.6,0.9-4.9,2.8-6.8c1.9-1.9,4.2-2.8,6.9-2.8C194.5,75.9,196.3,76.5,198.1,77.7z"/>
			<path class="st0" d="M204.3,76.2v18.5h-2.1V76.2H204.3z"/>
			<path class="st0" d="M219.1,78.1h-7.5v5.5h7.3v1.9h-7.3v7.2h7.5v1.9h-9.6V76.2h9.6V78.1z"/>
			<path class="st0" d="M223.3,94.7V75.4l14.4,15.1V76.2h2.1v19.3l-14.4-15.1v14.3H223.3z"/>
			<path class="st0" d="M259.4,77.7v2.6c-1.7-1.6-3.6-2.4-5.6-2.4c-2,0-3.8,0.8-5.3,2.3c-1.5,1.5-2.2,3.3-2.2,5.4
				c0,2.3,0.9,4.2,2.6,5.6c1.5,1.3,3.1,1.9,4.9,1.9c2,0,3.9-0.8,5.6-2.4v2.6c-1.8,1.2-3.6,1.8-5.6,1.8c-2.6,0-4.9-0.9-6.8-2.8
				s-2.8-4.1-2.8-6.7c0-2.6,0.9-4.9,2.8-6.8c1.9-1.9,4.2-2.8,6.9-2.8C255.8,75.9,257.6,76.5,259.4,77.7z"/>
			<path class="st0" d="M273.2,78.1h-7.5v5.5h7.3v1.9h-7.3v7.2h7.5v1.9h-9.6V76.2h9.6V78.1z"/>
			<path class="st0" d="M295.5,89.4h-7.9l-2.2,5.2h-2.2l8.5-19.4l8.3,19.4h-2.3L295.5,89.4z M294.7,87.5l-3.1-7.4l-3.2,7.4H294.7z"
				/>
			<path class="st0" d="M302.9,94.7V75.4l14.4,15.1V76.2h2.1v19.3L305,80.4v14.3H302.9z"/>
			<path class="st0" d="M324.7,94.7V76.2h3.8c1.7,0,3.1,0.2,4.2,0.6c1.2,0.4,2.2,1.1,3.2,2.1c1.7,1.7,2.6,3.9,2.6,6.6
				c0,2.6-0.9,4.8-2.6,6.6c-1,1-2,1.7-3.2,2.1c-1.1,0.4-2.5,0.6-4.2,0.6H324.7z M326.7,92.8h1.8c2.5,0,4.4-0.7,5.8-2.1
				c1.4-1.4,2.1-3.1,2.1-5.2c0-2.1-0.7-3.8-2-5.2c-1.4-1.4-3.3-2.1-5.8-2.1h-1.8V92.8z"/>
			<path class="st0" d="M360.2,78.1h-7.5v5.5h7.3v1.9h-7.3v7.2h7.5v1.9h-9.6V76.2h9.6V78.1z"/>
			<path class="st0" d="M364.4,94.7V75.4l14.4,15.1V76.2h2.1v19.3l-14.4-15.1v14.3H364.4z"/>
			<path class="st0" d="M395.9,85.4h7.7v0.5c0,1.9-0.3,3.5-1,4.7c-0.8,1.4-1.8,2.4-3.2,3.3c-1.4,0.8-2.9,1.2-4.6,1.2
				c-2.6,0-4.9-0.9-6.7-2.8c-1.9-1.9-2.8-4.1-2.8-6.7c0-2.7,0.9-4.9,2.8-6.8c1.9-1.9,4.2-2.8,6.8-2.8c1.6,0,3,0.3,4.2,0.9
				c0.6,0.3,1.2,0.7,1.8,1.2c0.6,0.5,1.2,1.1,1.8,1.8l-1.5,1.4c-0.9-1.2-1.9-2.1-2.9-2.6c-1-0.6-2.1-0.8-3.4-0.8
				c-2.1,0-3.9,0.8-5.4,2.3c-1.5,1.5-2.2,3.3-2.2,5.4c0,2.2,0.8,4,2.4,5.5c1.5,1.4,3.2,2.1,5.1,2.1c1,0,2-0.2,3-0.7
				c1-0.5,1.8-1.1,2.4-1.9c0.7-0.9,1-1.9,1.1-3.2h-5.5V85.4z"/>
			<path class="st0" d="M409.9,76.2v18.5h-2.1V76.2H409.9z"/>
			<path class="st0" d="M415.1,94.7V75.4l14.4,15.1V76.2h2.1v19.3l-14.4-15.1v14.3H415.1z"/>
			<path class="st0" d="M446.4,78.1h-7.5v5.5h7.3v1.9h-7.3v7.2h7.5v1.9h-9.6V76.2h9.6V78.1z"/>
			<path class="st0" d="M460.2,78.1h-7.5v5.5h7.3v1.9h-7.3v7.2h7.5v1.9h-9.6V76.2h9.6V78.1z"/>
			<path class="st0" d="M469.2,86.4l5.9,8.3h-2.5l-5.6-8.1h-0.5v8.1h-2.1V76.2h3c2.2,0,3.8,0.4,4.8,1.3c1.1,0.9,1.7,2.2,1.7,3.9
				c0,1.4-0.4,2.6-1.3,3.5C471.7,85.8,470.6,86.3,469.2,86.4z M466.4,84.7h1.3c1.3,0,2.3-0.3,3-0.9c0.7-0.6,1-1.4,1-2.5
				c0-2.2-1.4-3.3-4.1-3.3h-1.2V84.7z"/>
			<path class="st0" d="M480.8,76.2v18.5h-2.1V76.2H480.8z"/>
			<path class="st0" d="M486,94.7V75.4l14.4,15.1V76.2h2.1v19.3l-14.4-15.1v14.3H486z"/>
			<path class="st0" d="M517.4,85.4h7.7v0.5c0,1.9-0.3,3.5-1,4.7c-0.8,1.4-1.8,2.4-3.2,3.3c-1.4,0.8-2.9,1.2-4.6,1.2
				c-2.6,0-4.9-0.9-6.7-2.8c-1.9-1.9-2.8-4.1-2.8-6.7c0-2.7,0.9-4.9,2.8-6.8c1.9-1.9,4.2-2.8,6.8-2.8c1.6,0,3,0.3,4.2,0.9
				c0.6,0.3,1.2,0.7,1.8,1.2c0.6,0.5,1.2,1.1,1.8,1.8l-1.5,1.4c-0.9-1.2-1.9-2.1-2.9-2.6c-1-0.6-2.1-0.8-3.4-0.8
				c-2.1,0-3.9,0.8-5.4,2.3c-1.5,1.5-2.2,3.3-2.2,5.4c0,2.2,0.8,4,2.4,5.5c1.5,1.4,3.2,2.1,5.1,2.1c1,0,2-0.2,3-0.7
				c1-0.5,1.8-1.1,2.4-1.9c0.7-0.9,1-1.9,1.1-3.2h-5.5V85.4z"/>
		</g>
		<g>
			<polyline class="st0" points="148.5,18.1 148.5,98.2 151.1,98.2 151.1,18.1 			"/>
		</g>
		<g>
			<g>
				<path class="st0" d="M182.5,38.3v-8.7l-4.2,7.6l-4.1-7.6v8.7l1.3,0.9v2.6h-6.6v-2.6l1.3-0.9V26l-1.3-0.9v-2.6h5.8l3.7,6.8
					l3.8-6.8h5.7V25l-1.3,0.9v12.4l1.3,0.9v2.5h-6.6v-2.6L182.5,38.3z"/>
				<path class="st0" d="M198,41.8h-7.1v-2.6l1.4-0.9V26l-1.4-0.9v-2.6h7.1V25l-1.4,0.9v12.3l1.4,0.9V41.8z"/>
				<path class="st0" d="M213.5,25.4l0.3,0.3v2.2h-4.4v-0.9l-0.5-0.5h-3l-0.5,0.5v2.8l0.1,0.1h6l2,2.2l0.3,0.3v6.3l-3,3.3h-6.9
					l-2.7-3l-0.2-0.3v-2.7h4.4v1.5l0.6,0.7h2.9l0.6-0.7v-3.8l-0.1-0.1h-6.1l-2.2-2.6v-5.2l2.6-2.9l0.3-0.3h6.9L213.5,25.4z"/>
				<path class="st0" d="M229.2,25.4l0.3,0.3v2.2h-4.4v-0.9l-0.5-0.5h-3l-0.5,0.5v2.8l0.1,0.1h6l2,2.2l0.3,0.3v6.3l-3,3.3h-6.9
					l-2.7-3l-0.2-0.3v-2.7h4.4v1.5l0.6,0.7h2.9l0.6-0.7v-3.8l-0.1-0.1h-6.1l-2.2-2.6v-5.2l2.6-2.9l0.3-0.3h6.9L229.2,25.4z"/>
				<path class="st0" d="M239.6,41.8h-7.1v-2.6l1.4-0.9V26l-1.4-0.9v-2.6h7.1V25l-1.4,0.9v12.3l1.4,0.9V41.8z"/>
				<path class="st0" d="M255.1,25.4l0.3,0.3v2.2H251v-0.9l-0.5-0.5h-3l-0.5,0.5v2.8l0.1,0.1h6l2,2.2l0.3,0.3v6.3l-3,3.3h-6.9
					l-2.7-3l-0.2-0.3v-2.7h4.4v1.5l0.6,0.7h2.9l0.6-0.7v-3.8l-0.1-0.1h-6.1l-2.2-2.6v-5.2l2.6-2.9l0.3-0.3h6.9L255.1,25.4z"/>
				<path class="st0" d="M270.8,25.4l0.3,0.3v2.2h-4.4v-0.9l-0.5-0.5h-3l-0.5,0.5v2.8l0.1,0.1h6l2,2.2l0.3,0.3v6.3l-3,3.3h-6.9
					l-2.7-3l-0.2-0.3v-2.7h4.4v1.5l0.6,0.7h2.9l0.6-0.7v-3.8l-0.1-0.1h-6.1l-2.2-2.6v-5.2l2.6-2.9l0.3-0.3h6.9L270.8,25.4z"/>
				<path class="st0" d="M281.2,41.8h-7.1v-2.6l1.4-0.9V26l-1.4-0.9v-2.6h7.1V25l-1.4,0.9v12.3l1.4,0.9V41.8z"/>
				<path class="st0" d="M297.9,25.4l0.3,0.3V32l-2.7,2.9l-0.3,0.3h-5.2v3.2l1.5,0.9v2.6h-7.2v-2.6l1.4-0.9V26l-1.4-0.9v-2.6h11
					L297.9,25.4z M293.8,26.9l-0.5-0.5h-3.4v4.8h3.4l0.5-0.5V26.9z"/>
				<path class="st0" d="M314.3,25.4l0.3,0.3V32l-2.7,2.9l-0.3,0.3h-5.2v3.2l1.5,0.9v2.6h-7.2v-2.6l1.4-0.9V26l-1.4-0.9v-2.6h11
					L314.3,25.4z M310.2,26.9l-0.5-0.5h-3.4v4.8h3.4l0.5-0.5V26.9z"/>
				<path class="st0" d="M324.1,41.8H317v-2.6l1.4-0.9V26l-1.4-0.9v-2.6h7.1V25l-1.4,0.9v12.3l1.4,0.9V41.8z"/>
				<path class="st0" d="M349.9,25.4l0.3,0.3v2.2h-4.4v-0.9l-0.5-0.5h-3l-0.5,0.5v2.8l0.1,0.1h6l2,2.2l0.3,0.3v6.3l-3,3.3h-6.9
					l-2.7-3l-0.2-0.3v-2.7h4.4v1.5l0.6,0.7h2.9l0.6-0.7v-3.8l-0.1-0.1h-6.1l-2.2-2.6v-5.2l2.6-2.9l0.3-0.3h6.9L349.9,25.4z"/>
				<path class="st0" d="M352.3,22.5h15.5v6.1h-3.6v-2.1h-2v11.9l1.4,0.9v2.6h-7.1v-2.6l1.4-0.9V26.4h-2v2.1h-3.6V22.5z"/>
				<path class="st0" d="M382.9,39.2v2.5h-6.7v-2.6l1.3-0.8l-0.8-2.6h-4.5l-0.8,2.6l1.3,0.8v2.6h-6.4v-2.5l1.3-1l4.7-15.1l0.2-0.7
					h4.5l4.7,15.8L382.9,39.2z M375.6,32.1l-1.1-3.8l-1.2,3.8H375.6z"/>
				<path class="st0" d="M381.3,22.5h15.5v6.1h-3.6v-2.1h-2v11.9l1.4,0.9v2.6h-7.1v-2.6l1.4-0.9V26.4h-2v2.1h-3.6V22.5z"/>
				<path class="st0" d="M399,22.5H413v6h-4.4v-2.1h-4v3.7h4.7v3.6h-4.7v4.1h4v-1.4h4.4v5.4H399v-2.6l1.4-0.9V26l-1.4-0.9V22.5z"/>
				<path class="st0" d="M435.1,22.5h6.9v2.6l-1.6,0.9v12.6l-2.7,2.9l-0.3,0.3h-6.8l-2.9-3.2V26l-1.4-0.9v-2.6h6.6v2.4l-0.8,0.9
					v11.5l0.5,0.5h3l0.5-0.5V25.8l-0.9-0.9V22.5z"/>
				<path class="st0" d="M451.5,39.2v2.6H445v-2.6l1.4-0.9V26l-1.4-0.9v-2.6h5.9l5.6,10.7v-7.2l-1.2-0.9v-2.6h6.4V25l-1.3,0.9v15.8
					h-4L450.2,30v8.2L451.5,39.2z"/>
				<path class="st0" d="M471.8,41.8h-7.1v-2.6l1.4-0.9V26l-1.4-0.9v-2.6h7.1V25l-1.4,0.9v12.3l1.4,0.9V41.8z"/>
				<path class="st0" d="M483.8,22.5h7.3v2.7l-2,1l-4.7,15.7h-3.7l-4.9-15.7l-1.7-1v-2.6h7.1v2.6l-1.2,0.8l2.6,8.5l2.5-8.5l-1.3-0.8
					V22.5z"/>
				<path class="st0" d="M493.2,22.5h14.1v6H503v-2.1h-4v3.7h4.7v3.6h-4.7v4.1h4v-1.4h4.4v5.4h-14.1v-2.6l1.4-0.9V26l-1.4-0.9V22.5z
					"/>
				<path class="st0" d="M525.7,39.3v2.5h-6.5v-2.5l0.9-0.7l-1.9-4.4h-2.2v4.3l0.9,0.9v2.5h-6.7v-2.6l1.3-0.9V26l-1.3-0.9v-2.6h10.9
					l3,3.2V31l-2,2.1l2.3,5.2L525.7,39.3z M519.9,26.9l-0.6-0.5h-3.3v3.7h3.2l0.6-0.7V26.9z"/>
				<path class="st0" d="M540.7,25.4l0.3,0.3v2.2h-4.4v-0.9l-0.5-0.5h-3l-0.5,0.5v2.8l0.1,0.1h6l2,2.2l0.3,0.3v6.3l-3,3.3h-6.9
					l-2.7-3l-0.2-0.3v-2.7h4.4v1.5l0.6,0.7h2.9l0.6-0.7v-3.8l-0.1-0.1h-6.1l-2.2-2.6v-5.2l2.6-2.9l0.3-0.3h6.9L540.7,25.4z"/>
				<path class="st0" d="M551.1,41.8H544v-2.6l1.4-0.9V26l-1.4-0.9v-2.6h7.1V25l-1.4,0.9v12.3l1.4,0.9V41.8z"/>
				<path class="st0" d="M553.3,22.5h15.5v6.1h-3.6v-2.1h-2v11.9l1.4,0.9v2.6h-7.1v-2.6l1.4-0.9V26.4h-2v2.1h-3.6V22.5z"/>
				<path class="st0" d="M579.9,22.5h6.3V25l-1.3,1.1l-4.2,8.4v3.9l1.4,0.9v2.6h-7v-2.6l1.3-0.9v-3.9l-4.2-8.4l-1.2-1.1v-2.5h6.3V25
					l-0.8,0.7l2.1,4.2l2.1-4.2l-0.8-0.7V22.5z"/>
			</g>
		</g>
	</g>
</g>
</svg>
